<svg width="1009" height="697" viewBox="0 0 1009 697" fill="none" xmlns="http://www.w3.org/2000/svg">
<path d="M698.745 610.494C706.39 589.835 735.61 589.835 743.255 610.494L746.834 620.166L756.506 623.745C777.165 631.39 777.165 660.61 756.506 668.255L746.834 671.834L743.255 681.506C735.61 702.165 706.39 702.165 698.745 681.506L695.166 671.834L685.494 668.255C664.835 660.61 664.835 631.39 685.494 623.745L695.166 620.166L698.745 610.494Z" fill="black"/>
<path d="M379.198 59.9C383.304 45.3667 403.696 45.3667 407.802 59.9L408.385 61.9605L410.442 61.4395C424.957 57.7648 435.153 75.6019 424.745 86.4605L423.269 88L424.745 89.5395C435.153 100.398 424.957 118.235 410.442 114.561L408.385 114.04L407.802 116.1C403.696 130.633 383.304 130.633 379.198 116.1L378.615 114.04L376.558 114.561C362.043 118.235 351.847 100.398 362.255 89.5395L363.731 88L362.255 86.4605C351.847 75.6019 362.043 57.7648 376.558 61.4395L378.615 61.9605L379.198 59.9Z" fill="black"/>
<path d="M218.5 245.5V358.5H497.75M777 245.5V358.5H497.75M497.75 358.5V470" stroke="black" stroke-width="10" stroke-linecap="round" stroke-linejoin="round" stroke-dasharray="10 20"/>
<rect x="5" y="93" width="410" height="190" rx="15" fill="white" stroke="black" stroke-width="10"/>
<path d="M133.042 178.384C137.746 178.384 140.434 175.792 141.97 173.136L138.066 171.248C137.17 173.008 135.25 174.352 133.042 174.352C129.17 174.352 126.354 171.376 126.354 167.344C126.354 163.312 129.17 160.336 133.042 160.336C135.25 160.336 137.17 161.712 138.066 163.44L141.97 161.52C140.466 158.864 137.746 156.304 133.042 156.304C126.642 156.304 121.682 160.784 121.682 167.344C121.682 173.904 126.642 178.384 133.042 178.384ZM151.747 178.384C156.867 178.384 159.939 174.672 159.939 170.256C159.939 165.872 156.867 162.16 151.747 162.16C146.659 162.16 143.587 165.872 143.587 170.256C143.587 174.672 146.659 178.384 151.747 178.384ZM151.747 174.768C149.219 174.768 147.811 172.688 147.811 170.256C147.811 167.856 149.219 165.776 151.747 165.776C154.275 165.776 155.715 167.856 155.715 170.256C155.715 172.688 154.275 174.768 151.747 174.768ZM168.586 178.384C173.194 178.384 176.042 176.464 176.042 173.744C176.042 171.408 173.578 170.192 171.69 170.064C173.738 169.744 175.722 168.4 175.722 166.416C175.722 163.792 173.002 162.16 168.17 162.192C165.354 162.192 163.114 163.248 161.61 164.752L163.594 167.152C164.81 165.968 166.378 165.392 168.394 165.392C170.218 165.392 171.498 166.032 171.498 166.96C171.498 168.048 170.442 168.624 168.33 168.624H165.161V171.76H168.33C170.442 171.76 171.786 172.304 171.786 173.488C171.786 174.48 170.666 175.152 168.586 175.152C166.73 175.152 164.682 174.608 163.242 173.392L161.386 175.92C162.89 177.392 165.386 178.384 168.586 178.384ZM177.639 181.936H181.735V178H191.239V181.936H195.303V174.448H193.607V162.544H181.095L180.103 170.032C179.623 173.776 178.887 174.384 177.639 174.608V181.936ZM184.647 166.096H189.543V174.448H182.375C183.335 173.552 183.943 172.176 184.167 170.288L184.647 166.096ZM211.204 178V168.016C211.204 163.568 207.972 162.16 204.452 162.16C202.02 162.16 199.588 162.928 197.7 164.592L199.236 167.312C200.548 166.096 202.084 165.488 203.748 165.488C205.796 165.488 207.14 166.512 207.14 168.08V170.16C206.116 168.944 204.292 168.272 202.244 168.272C199.78 168.272 196.868 169.648 196.868 173.264C196.868 176.72 199.78 178.384 202.244 178.384C204.26 178.384 206.084 177.648 207.14 176.4V178H211.204ZM203.876 175.632C202.276 175.632 200.964 174.8 200.964 173.36C200.964 171.856 202.276 171.024 203.876 171.024C205.188 171.024 206.468 171.472 207.14 172.368V174.288C206.468 175.184 205.188 175.632 203.876 175.632ZM225.315 178C228.419 178 230.083 176.144 230.083 173.808C230.083 171.952 228.835 170.416 227.139 170.032C228.579 169.616 229.763 168.368 229.763 166.512C229.763 164.432 228.163 162.544 225.027 162.544H215.235V178H225.315ZM224.323 174.672H219.299V171.792H224.323C225.347 171.792 225.923 172.464 225.923 173.232C225.923 174.128 225.315 174.672 224.323 174.672ZM224.195 168.464H219.299V165.872H224.195C225.091 165.872 225.635 166.416 225.635 167.184C225.635 167.888 225.091 168.464 224.195 168.464ZM247.329 178V168.016C247.329 163.568 244.097 162.16 240.577 162.16C238.145 162.16 235.713 162.928 233.825 164.592L235.361 167.312C236.673 166.096 238.209 165.488 239.873 165.488C241.921 165.488 243.265 166.512 243.265 168.08V170.16C242.241 168.944 240.417 168.272 238.369 168.272C235.905 168.272 232.993 169.648 232.993 173.264C232.993 176.72 235.905 178.384 238.369 178.384C240.385 178.384 242.209 177.648 243.265 176.4V178H247.329ZM240.001 175.632C238.401 175.632 237.089 174.8 237.089 173.36C237.089 171.856 238.401 171.024 240.001 171.024C241.313 171.024 242.593 171.472 243.265 172.368V174.288C242.593 175.184 241.313 175.632 240.001 175.632ZM255.264 178L261.824 168.304V178H265.888V162.544H261.792L255.424 171.888V162.544H251.36V178H255.264ZM264.224 158.192L262.432 156.688C261.536 157.936 260.224 158.672 258.624 158.672C256.96 158.672 255.648 157.904 254.784 156.688L252.992 158.192C254.304 159.92 256.352 161.008 258.624 161.008C260.928 161.008 262.944 159.92 264.224 158.192ZM276.866 178V166.096H281.186V162.544H268.45V166.096H272.77V178H276.866ZM290.999 178.384C293.399 178.384 295.831 177.648 297.367 176.24L295.575 173.616C294.583 174.576 292.759 175.152 291.447 175.152C288.823 175.152 287.255 173.52 286.999 171.568H298.487V170.672C298.487 165.616 295.351 162.16 290.743 162.16C286.039 162.16 282.743 165.776 282.743 170.256C282.743 175.216 286.295 178.384 290.999 178.384ZM294.551 168.816H286.935C287.127 167.28 288.215 165.392 290.743 165.392C293.431 165.392 294.455 167.344 294.551 168.816ZM133.919 217V201.544H119.391V217H123.455V205.096H129.855V217H133.919ZM145.218 217.384C147.618 217.384 150.05 216.648 151.586 215.24L149.794 212.616C148.802 213.576 146.978 214.152 145.666 214.152C143.042 214.152 141.474 212.52 141.218 210.568H152.706V209.672C152.706 204.616 149.57 201.16 144.962 201.16C140.258 201.16 136.962 204.776 136.962 209.256C136.962 214.216 140.514 217.384 145.218 217.384ZM148.77 207.816H141.154C141.346 206.28 142.434 204.392 144.962 204.392C147.65 204.392 148.674 206.344 148.77 207.816ZM164.473 217.384C168.441 217.384 171.321 214.408 171.321 209.256C171.321 204.104 168.441 201.16 164.473 201.16C162.585 201.16 160.889 201.992 159.705 203.496V201.544H155.641V222.888H159.705V215.016C160.953 216.616 162.649 217.384 164.473 217.384ZM163.193 213.768C161.881 213.768 160.377 212.968 159.705 212.008V206.536C160.377 205.544 161.881 204.776 163.193 204.776C165.529 204.776 167.097 206.6 167.097 209.256C167.097 211.944 165.529 213.768 163.193 213.768ZM181.497 217.384C184.665 217.384 186.585 216.008 187.609 214.568L184.953 212.104C184.217 213.128 183.097 213.768 181.689 213.768C179.225 213.768 177.497 211.944 177.497 209.256C177.497 206.568 179.225 204.776 181.689 204.776C183.097 204.776 184.217 205.352 184.953 206.44L187.609 203.944C186.585 202.536 184.665 201.16 181.497 201.16C176.729 201.16 173.305 204.52 173.305 209.256C173.305 214.024 176.729 217.384 181.497 217.384ZM197.434 217.384C202.554 217.384 205.626 213.672 205.626 209.256C205.626 204.872 202.554 201.16 197.434 201.16C192.346 201.16 189.274 204.872 189.274 209.256C189.274 213.672 192.346 217.384 197.434 217.384ZM197.434 213.768C194.906 213.768 193.498 211.688 193.498 209.256C193.498 206.856 194.906 204.776 197.434 204.776C199.962 204.776 201.402 206.856 201.402 209.256C201.402 211.688 199.962 213.768 197.434 213.768ZM212.705 217V210.824H219.105V217H223.169V201.544H219.105V207.272H212.705V201.544H208.641V217H212.705ZM240.548 217V207.016C240.548 202.568 237.316 201.16 233.796 201.16C231.364 201.16 228.932 201.928 227.044 203.592L228.58 206.312C229.891 205.096 231.428 204.488 233.092 204.488C235.14 204.488 236.484 205.512 236.484 207.08V209.16C235.46 207.944 233.635 207.272 231.588 207.272C229.124 207.272 226.212 208.648 226.212 212.264C226.212 215.72 229.124 217.384 231.588 217.384C233.604 217.384 235.428 216.648 236.484 215.4V217H240.548ZM233.22 214.632C231.62 214.632 230.308 213.8 230.308 212.36C230.308 210.856 231.62 210.024 233.22 210.024C234.532 210.024 235.812 210.472 236.484 211.368V213.288C235.812 214.184 234.532 214.632 233.22 214.632ZM247.651 217L251.779 211.048L252.515 211.848V217H256.611V211.848L257.347 211.048L261.475 217H266.531L260.259 208.552L266.339 201.544H261.347L256.611 207.144V201.544H252.515V207.144L247.779 201.544H242.787L248.867 208.552L242.595 217H247.651ZM275.655 217.384C278.055 217.384 280.487 216.648 282.023 215.24L280.231 212.616C279.239 213.576 277.415 214.152 276.103 214.152C273.479 214.152 271.911 212.52 271.655 210.568H283.143V209.672C283.143 204.616 280.007 201.16 275.399 201.16C270.695 201.16 267.399 204.776 267.399 209.256C267.399 214.216 270.951 217.384 275.655 217.384ZM279.207 207.816H271.591C271.783 206.28 272.871 204.392 275.399 204.392C278.087 204.392 279.111 206.344 279.207 207.816ZM289.983 217L296.543 207.304V217H300.607V201.544H296.511L290.143 210.888V201.544H286.079V217H289.983ZM298.943 197.192L297.151 195.688C296.255 196.936 294.943 197.672 293.343 197.672C291.679 197.672 290.367 196.904 289.503 195.688L287.711 197.192C289.023 198.92 291.071 200.008 293.343 200.008C295.647 200.008 297.663 198.92 298.943 197.192Z" fill="black"/>
<rect x="594" y="93" width="410" height="190" rx="15" fill="white" stroke="black" stroke-width="10"/>
<path d="M722.542 178.384C727.246 178.384 729.934 175.792 731.47 173.136L727.566 171.248C726.67 173.008 724.75 174.352 722.542 174.352C718.67 174.352 715.854 171.376 715.854 167.344C715.854 163.312 718.67 160.336 722.542 160.336C724.75 160.336 726.67 161.712 727.566 163.44L731.47 161.52C729.966 158.864 727.246 156.304 722.542 156.304C716.142 156.304 711.182 160.784 711.182 167.344C711.182 173.904 716.142 178.384 722.542 178.384ZM741.247 178.384C746.367 178.384 749.439 174.672 749.439 170.256C749.439 165.872 746.367 162.16 741.247 162.16C736.159 162.16 733.087 165.872 733.087 170.256C733.087 174.672 736.159 178.384 741.247 178.384ZM741.247 174.768C738.719 174.768 737.311 172.688 737.311 170.256C737.311 167.856 738.719 165.776 741.247 165.776C743.775 165.776 745.215 167.856 745.215 170.256C745.215 172.688 743.775 174.768 741.247 174.768ZM758.086 178.384C762.694 178.384 765.542 176.464 765.542 173.744C765.542 171.408 763.078 170.192 761.19 170.064C763.238 169.744 765.222 168.4 765.222 166.416C765.222 163.792 762.502 162.16 757.67 162.192C754.854 162.192 752.614 163.248 751.11 164.752L753.094 167.152C754.31 165.968 755.878 165.392 757.894 165.392C759.718 165.392 760.998 166.032 760.998 166.96C760.998 168.048 759.942 168.624 757.83 168.624H754.661V171.76H757.83C759.942 171.76 761.286 172.304 761.286 173.488C761.286 174.48 760.166 175.152 758.086 175.152C756.23 175.152 754.182 174.608 752.742 173.392L750.886 175.92C752.39 177.392 754.886 178.384 758.086 178.384ZM767.139 181.936H771.235V178H780.739V181.936H784.803V174.448H783.107V162.544H770.595L769.603 170.032C769.123 173.776 768.387 174.384 767.139 174.608V181.936ZM774.147 166.096H779.043V174.448H771.875C772.835 173.552 773.443 172.176 773.667 170.288L774.147 166.096ZM800.704 178V168.016C800.704 163.568 797.472 162.16 793.952 162.16C791.52 162.16 789.088 162.928 787.2 164.592L788.736 167.312C790.048 166.096 791.584 165.488 793.248 165.488C795.296 165.488 796.64 166.512 796.64 168.08V170.16C795.616 168.944 793.792 168.272 791.744 168.272C789.28 168.272 786.368 169.648 786.368 173.264C786.368 176.72 789.28 178.384 791.744 178.384C793.76 178.384 795.584 177.648 796.64 176.4V178H800.704ZM793.376 175.632C791.776 175.632 790.464 174.8 790.464 173.36C790.464 171.856 791.776 171.024 793.376 171.024C794.688 171.024 795.968 171.472 796.64 172.368V174.288C795.968 175.184 794.688 175.632 793.376 175.632ZM814.815 178C817.919 178 819.583 176.144 819.583 173.808C819.583 171.952 818.335 170.416 816.639 170.032C818.079 169.616 819.263 168.368 819.263 166.512C819.263 164.432 817.663 162.544 814.527 162.544H804.735V178H814.815ZM813.823 174.672H808.799V171.792H813.823C814.847 171.792 815.423 172.464 815.423 173.232C815.423 174.128 814.815 174.672 813.823 174.672ZM813.695 168.464H808.799V165.872H813.695C814.591 165.872 815.135 166.416 815.135 167.184C815.135 167.888 814.591 168.464 813.695 168.464ZM836.829 178V168.016C836.829 163.568 833.597 162.16 830.077 162.16C827.645 162.16 825.213 162.928 823.325 164.592L824.861 167.312C826.173 166.096 827.709 165.488 829.373 165.488C831.421 165.488 832.765 166.512 832.765 168.08V170.16C831.741 168.944 829.917 168.272 827.869 168.272C825.405 168.272 822.493 169.648 822.493 173.264C822.493 176.72 825.405 178.384 827.869 178.384C829.885 178.384 831.709 177.648 832.765 176.4V178H836.829ZM829.501 175.632C827.901 175.632 826.589 174.8 826.589 173.36C826.589 171.856 827.901 171.024 829.501 171.024C830.813 171.024 832.093 171.472 832.765 172.368V174.288C832.093 175.184 830.813 175.632 829.501 175.632ZM844.764 178L851.324 168.304V178H855.388V162.544H851.292L844.924 171.888V162.544H840.86V178H844.764ZM853.724 158.192L851.932 156.688C851.036 157.936 849.724 158.672 848.124 158.672C846.46 158.672 845.148 157.904 844.284 156.688L842.492 158.192C843.804 159.92 845.852 161.008 848.124 161.008C850.428 161.008 852.444 159.92 853.724 158.192ZM866.366 178V166.096H870.686V162.544H857.95V166.096H862.27V178H866.366ZM880.499 178.384C882.899 178.384 885.331 177.648 886.867 176.24L885.075 173.616C884.083 174.576 882.259 175.152 880.947 175.152C878.323 175.152 876.755 173.52 876.499 171.568H887.987V170.672C887.987 165.616 884.851 162.16 880.243 162.16C875.539 162.16 872.243 165.776 872.243 170.256C872.243 175.216 875.795 178.384 880.499 178.384ZM884.051 168.816H876.435C876.627 167.28 877.715 165.392 880.243 165.392C882.931 165.392 883.955 167.344 884.051 168.816ZM760.794 217.384C763.962 217.384 765.882 216.008 766.906 214.568L764.25 212.104C763.514 213.128 762.394 213.768 760.986 213.768C758.522 213.768 756.794 211.944 756.794 209.256C756.794 206.568 758.522 204.776 760.986 204.776C762.394 204.776 763.514 205.352 764.25 206.44L766.906 203.944C765.882 202.536 763.962 201.16 760.794 201.16C756.026 201.16 752.602 204.52 752.602 209.256C752.602 214.024 756.026 217.384 760.794 217.384ZM781.723 220.936H785.787V213.448H784.091V201.544H780.027V213.448H773.627V201.544H769.563V217H781.723V220.936ZM795.608 217.384C798.008 217.384 800.44 216.648 801.976 215.24L800.184 212.616C799.192 213.576 797.368 214.152 796.056 214.152C793.432 214.152 791.864 212.52 791.608 210.568H803.096V209.672C803.096 204.616 799.96 201.16 795.352 201.16C790.648 201.16 787.352 204.776 787.352 209.256C787.352 214.216 790.904 217.384 795.608 217.384ZM799.16 207.816H791.544C791.736 206.28 792.824 204.392 795.352 204.392C798.04 204.392 799.064 206.344 799.16 207.816ZM810.096 217V210.824H816.496V217H820.56V201.544H816.496V207.272H810.096V201.544H806.032V217H810.096ZM824.594 201.544V217H833.938C837.394 217 839.314 214.664 839.314 211.912C839.314 209.192 837.522 206.856 833.938 206.856H828.658V201.544H824.594ZM833.33 210.248C834.482 210.248 835.154 210.952 835.154 211.912C835.154 212.872 834.482 213.576 833.33 213.576H828.658V210.248H833.33ZM845.426 217V201.544H841.33V217H845.426Z" fill="black"/>
<rect x="293" y="426" width="420" height="200" rx="20" fill="black"/>
<rect x="318" y="451" width="410" height="190" rx="15" fill="white" stroke="black" stroke-width="10"/>
<path d="M386.167 536.384C390.871 536.384 393.559 533.792 395.095 531.136L391.191 529.248C390.295 531.008 388.375 532.352 386.167 532.352C382.295 532.352 379.479 529.376 379.479 525.344C379.479 521.312 382.295 518.336 386.167 518.336C388.375 518.336 390.295 519.712 391.191 521.44L395.095 519.52C393.591 516.864 390.871 514.304 386.167 514.304C379.767 514.304 374.807 518.784 374.807 525.344C374.807 531.904 379.767 536.384 386.167 536.384ZM404.872 536.384C409.992 536.384 413.064 532.672 413.064 528.256C413.064 523.872 409.992 520.16 404.872 520.16C399.784 520.16 396.712 523.872 396.712 528.256C396.712 532.672 399.784 536.384 404.872 536.384ZM404.872 532.768C402.344 532.768 400.936 530.688 400.936 528.256C400.936 525.856 402.344 523.776 404.872 523.776C407.4 523.776 408.84 525.856 408.84 528.256C408.84 530.688 407.4 532.768 404.872 532.768ZM421.711 536.384C426.319 536.384 429.167 534.464 429.167 531.744C429.167 529.408 426.703 528.192 424.815 528.064C426.863 527.744 428.847 526.4 428.847 524.416C428.847 521.792 426.127 520.16 421.295 520.192C418.479 520.192 416.239 521.248 414.735 522.752L416.719 525.152C417.935 523.968 419.503 523.392 421.519 523.392C423.343 523.392 424.623 524.032 424.623 524.96C424.623 526.048 423.567 526.624 421.455 526.624H418.286V529.76H421.455C423.567 529.76 424.911 530.304 424.911 531.488C424.911 532.48 423.791 533.152 421.711 533.152C419.855 533.152 417.807 532.608 416.367 531.392L414.511 533.92C416.015 535.392 418.511 536.384 421.711 536.384ZM430.764 539.936H434.86V536H444.364V539.936H448.428V532.448H446.732V520.544H434.22L433.228 528.032C432.748 531.776 432.012 532.384 430.764 532.608V539.936ZM437.772 524.096H442.668V532.448H435.5C436.46 531.552 437.068 530.176 437.292 528.288L437.772 524.096ZM464.329 536V526.016C464.329 521.568 461.097 520.16 457.577 520.16C455.145 520.16 452.713 520.928 450.825 522.592L452.361 525.312C453.673 524.096 455.209 523.488 456.873 523.488C458.921 523.488 460.265 524.512 460.265 526.08V528.16C459.241 526.944 457.417 526.272 455.369 526.272C452.905 526.272 449.993 527.648 449.993 531.264C449.993 534.72 452.905 536.384 455.369 536.384C457.385 536.384 459.209 535.648 460.265 534.4V536H464.329ZM457.001 533.632C455.401 533.632 454.089 532.8 454.089 531.36C454.089 529.856 455.401 529.024 457.001 529.024C458.313 529.024 459.593 529.472 460.265 530.368V532.288C459.593 533.184 458.313 533.632 457.001 533.632ZM478.44 536C481.544 536 483.208 534.144 483.208 531.808C483.208 529.952 481.96 528.416 480.264 528.032C481.704 527.616 482.888 526.368 482.888 524.512C482.888 522.432 481.288 520.544 478.152 520.544H468.36V536H478.44ZM477.448 532.672H472.424V529.792H477.448C478.472 529.792 479.048 530.464 479.048 531.232C479.048 532.128 478.44 532.672 477.448 532.672ZM477.32 526.464H472.424V523.872H477.32C478.216 523.872 478.76 524.416 478.76 525.184C478.76 525.888 478.216 526.464 477.32 526.464ZM500.454 536V526.016C500.454 521.568 497.222 520.16 493.702 520.16C491.27 520.16 488.838 520.928 486.95 522.592L488.486 525.312C489.798 524.096 491.334 523.488 492.998 523.488C495.046 523.488 496.39 524.512 496.39 526.08V528.16C495.366 526.944 493.542 526.272 491.494 526.272C489.03 526.272 486.118 527.648 486.118 531.264C486.118 534.72 489.03 536.384 491.494 536.384C493.51 536.384 495.334 535.648 496.39 534.4V536H500.454ZM493.126 533.632C491.526 533.632 490.214 532.8 490.214 531.36C490.214 529.856 491.526 529.024 493.126 529.024C494.438 529.024 495.718 529.472 496.39 530.368V532.288C495.718 533.184 494.438 533.632 493.126 533.632ZM508.389 536L514.949 526.304V536H519.013V520.544H514.917L508.549 529.888V520.544H504.485V536H508.389ZM517.349 516.192L515.557 514.688C514.661 515.936 513.349 516.672 511.749 516.672C510.085 516.672 508.773 515.904 507.909 514.688L506.117 516.192C507.429 517.92 509.477 519.008 511.749 519.008C514.053 519.008 516.069 517.92 517.349 516.192ZM529.991 536V524.096H534.311V520.544H521.575V524.096H525.895V536H529.991ZM544.124 536.384C546.524 536.384 548.956 535.648 550.492 534.24L548.7 531.616C547.708 532.576 545.884 533.152 544.572 533.152C541.948 533.152 540.38 531.52 540.124 529.568H551.612V528.672C551.612 523.616 548.476 520.16 543.868 520.16C539.164 520.16 535.868 523.776 535.868 528.256C535.868 533.216 539.42 536.384 544.124 536.384ZM547.676 526.816H540.06C540.252 525.28 541.34 523.392 543.868 523.392C546.556 523.392 547.58 525.344 547.676 526.816ZM574.671 520.544H562.735V536H566.799V524.096H574.671V520.544ZM586.098 536.384C590.066 536.384 592.946 533.408 592.946 528.256C592.946 523.104 590.066 520.16 586.098 520.16C584.21 520.16 582.514 520.992 581.33 522.496V520.544H577.266V541.888H581.33V534.016C582.578 535.616 584.274 536.384 586.098 536.384ZM584.818 532.768C583.506 532.768 582.002 531.968 581.33 531.008V525.536C582.002 524.544 583.506 523.776 584.818 523.776C587.154 523.776 588.722 525.6 588.722 528.256C588.722 530.944 587.154 532.768 584.818 532.768ZM595.378 542.048C595.89 542.176 596.914 542.272 597.394 542.272C600.05 542.208 602.098 541.44 603.25 538.528L610.514 520.544H606.13L602.098 531.296L598.066 520.544H593.714L599.986 536.224L599.41 537.536C599.026 538.368 598.322 538.656 597.266 538.656C596.882 538.656 596.338 538.56 595.986 538.4L595.378 542.048ZM626.857 536V520.544H612.329V536H616.393V524.096H622.793V536H626.857ZM645.419 536V520.544H630.891V536H634.955V524.096H641.355V536H645.419ZM649.454 520.544V536H658.798C662.254 536 664.174 533.664 664.174 530.912C664.174 528.192 662.382 525.856 658.798 525.856H653.518V520.544H649.454ZM658.19 529.248C659.342 529.248 660.014 529.952 660.014 530.912C660.014 531.872 659.342 532.576 658.19 532.576H653.518V529.248H658.19ZM670.286 536V520.544H666.19V536H670.286ZM393.95 575V559.544H379.422V575H383.486V563.096H389.886V575H393.95ZM405.249 575.384C407.649 575.384 410.081 574.648 411.617 573.24L409.825 570.616C408.833 571.576 407.009 572.152 405.697 572.152C403.073 572.152 401.505 570.52 401.249 568.568H412.737V567.672C412.737 562.616 409.601 559.16 404.993 559.16C400.289 559.16 396.993 562.776 396.993 567.256C396.993 572.216 400.545 575.384 405.249 575.384ZM408.801 565.816H401.185C401.377 564.28 402.465 562.392 404.993 562.392C407.681 562.392 408.705 564.344 408.801 565.816ZM424.504 575.384C428.472 575.384 431.352 572.408 431.352 567.256C431.352 562.104 428.472 559.16 424.504 559.16C422.616 559.16 420.92 559.992 419.736 561.496V559.544H415.672V580.888H419.736V573.016C420.984 574.616 422.68 575.384 424.504 575.384ZM423.224 571.768C421.912 571.768 420.408 570.968 419.736 570.008V564.536C420.408 563.544 421.912 562.776 423.224 562.776C425.56 562.776 427.128 564.6 427.128 567.256C427.128 569.944 425.56 571.768 423.224 571.768ZM441.529 575.384C444.697 575.384 446.617 574.008 447.641 572.568L444.985 570.104C444.249 571.128 443.129 571.768 441.72 571.768C439.257 571.768 437.529 569.944 437.529 567.256C437.529 564.568 439.257 562.776 441.72 562.776C443.129 562.776 444.249 563.352 444.985 564.44L447.641 561.944C446.617 560.536 444.697 559.16 441.529 559.16C436.761 559.16 433.337 562.52 433.337 567.256C433.337 572.024 436.761 575.384 441.529 575.384ZM457.465 575.384C462.585 575.384 465.657 571.672 465.657 567.256C465.657 562.872 462.585 559.16 457.465 559.16C452.377 559.16 449.305 562.872 449.305 567.256C449.305 571.672 452.377 575.384 457.465 575.384ZM457.465 571.768C454.937 571.768 453.529 569.688 453.529 567.256C453.529 564.856 454.937 562.776 457.465 562.776C459.993 562.776 461.433 564.856 461.433 567.256C461.433 569.688 459.993 571.768 457.465 571.768ZM472.736 575V568.824H479.136V575H483.2V559.544H479.136V565.272H472.736V559.544H468.672V575H472.736ZM500.579 575V565.016C500.579 560.568 497.347 559.16 493.827 559.16C491.395 559.16 488.963 559.928 487.075 561.592L488.611 564.312C489.923 563.096 491.459 562.488 493.123 562.488C495.171 562.488 496.515 563.512 496.515 565.08V567.16C495.491 565.944 493.667 565.272 491.619 565.272C489.155 565.272 486.243 566.648 486.243 570.264C486.243 573.72 489.155 575.384 491.619 575.384C493.635 575.384 495.459 574.648 496.515 573.4V575H500.579ZM493.251 572.632C491.651 572.632 490.339 571.8 490.339 570.36C490.339 568.856 491.651 568.024 493.251 568.024C494.563 568.024 495.843 568.472 496.515 569.368V571.288C495.843 572.184 494.563 572.632 493.251 572.632ZM507.682 575L511.81 569.048L512.546 569.848V575H516.642V569.848L517.378 569.048L521.506 575H526.562L520.29 566.552L526.37 559.544H521.378L516.642 565.144V559.544H512.546V565.144L507.81 559.544H502.818L508.898 566.552L502.626 575H507.682ZM535.686 575.384C538.086 575.384 540.518 574.648 542.054 573.24L540.262 570.616C539.27 571.576 537.446 572.152 536.134 572.152C533.51 572.152 531.942 570.52 531.686 568.568H543.174V567.672C543.174 562.616 540.038 559.16 535.43 559.16C530.726 559.16 527.43 562.776 527.43 567.256C527.43 572.216 530.982 575.384 535.686 575.384ZM539.238 565.816H531.622C531.814 564.28 532.902 562.392 535.43 562.392C538.118 562.392 539.142 564.344 539.238 565.816ZM550.014 575L556.574 565.304V575H560.638V559.544H556.542L550.174 568.888V559.544H546.11V575H550.014ZM558.974 555.192L557.182 553.688C556.286 554.936 554.974 555.672 553.374 555.672C551.71 555.672 550.398 554.904 549.534 553.688L547.742 555.192C549.054 556.92 551.102 558.008 553.374 558.008C555.678 558.008 557.694 556.92 558.974 555.192ZM576.764 575L583.324 565.304V575H587.388V559.544H583.292L576.924 568.888V559.544H572.86V575H576.764ZM606.81 575.384C609.978 575.384 611.898 574.008 612.922 572.568L610.266 570.104C609.53 571.128 608.41 571.768 607.002 571.768C604.538 571.768 602.81 569.944 602.81 567.256C602.81 564.568 604.538 562.776 607.002 562.776C608.41 562.776 609.53 563.352 610.266 564.44L612.922 561.944C611.898 560.536 609.978 559.16 606.81 559.16C602.042 559.16 598.618 562.52 598.618 567.256C598.618 572.024 602.042 575.384 606.81 575.384ZM627.739 578.936H631.803V571.448H630.107V559.544H626.043V571.448H619.643V559.544H615.579V575H627.739V578.936ZM641.624 575.384C644.024 575.384 646.456 574.648 647.992 573.24L646.2 570.616C645.208 571.576 643.384 572.152 642.072 572.152C639.448 572.152 637.88 570.52 637.624 568.568H649.112V567.672C649.112 562.616 645.976 559.16 641.368 559.16C636.664 559.16 633.368 562.776 633.368 567.256C633.368 572.216 636.92 575.384 641.624 575.384ZM645.176 565.816H637.56C637.752 564.28 638.84 562.392 641.368 562.392C644.056 562.392 645.08 564.344 645.176 565.816ZM656.111 575V568.824H662.511V575H666.575V559.544H662.511V565.272H656.111V559.544H652.047V575H656.111Z" fill="black"/>
<path d="M891.435 6.84742C894.038 -2.28247 906.962 -2.28248 909.565 6.84742L909.934 8.14184L911.238 7.81455C920.437 5.50607 926.9 16.7114 920.303 23.5329L919.368 24.5L920.303 25.4671C926.9 32.2886 920.437 43.4939 911.238 41.1854L909.934 40.8582L909.565 42.1526C906.962 51.2825 894.038 51.2825 891.435 42.1526L891.066 40.8582L889.762 41.1854C880.563 43.4939 874.1 32.2886 880.697 25.4671L881.632 24.5L880.697 23.5329C874.1 16.7114 880.563 5.50608 889.762 7.81455L891.066 8.14184L891.435 6.84742Z" fill="black"/>
<path d="M57.5545 420.228C60.6273 411.924 72.3727 411.924 75.4455 420.228L76.8841 424.116L80.7718 425.554C89.0761 428.627 89.0761 440.373 80.7718 443.446L76.8841 444.884L75.4455 448.772C72.3727 457.076 60.6273 457.076 57.5545 448.772L56.1159 444.884L52.2282 443.446C43.9239 440.373 43.9239 428.627 52.2282 425.554L56.1159 424.116L57.5545 420.228Z" fill="black"/>
</svg>
