<svg width="1440" height="248" viewBox="0 0 1440 248" fill="none" xmlns="http://www.w3.org/2000/svg">
<rect width="1440" height="248" fill="black"/>
<path fill-rule="evenodd" clip-rule="evenodd" d="M1286.46 122.833V114.551C1286.46 100.944 1296.36 90 1308.67 90H1363.93C1376.1 90 1386 100.944 1386 114.403V122.685C1386 136.144 1376.1 147.088 1363.93 147.088H1308.67C1307.97 147.088 1307.28 147.051 1306.6 146.978C1304.75 150.303 1301.22 152.554 1297.16 152.554C1291.2 152.554 1286.37 147.705 1286.37 141.723C1286.37 138.824 1287.5 136.191 1289.35 134.247C1287.67 131.056 1286.46 127.254 1286.46 122.833Z" fill="black"/>
<path fill-rule="evenodd" clip-rule="evenodd" d="M1306.6 146.978C1307.28 147.051 1307.97 147.088 1308.67 147.088H1363.93C1376.1 147.088 1386 136.144 1386 122.685V114.403C1386 100.944 1376.1 90 1363.93 90H1308.67C1296.36 90 1286.46 100.944 1286.46 114.551V122.833C1286.46 127.254 1287.67 131.056 1289.35 134.247C1287.5 136.191 1286.37 138.824 1286.37 141.723C1286.37 147.705 1291.2 152.554 1297.16 152.554C1301.22 152.554 1304.75 150.303 1306.6 146.978ZM1292.01 122.833C1292.01 122.833 1292.01 122.833 1292.01 122.833C1292.01 126.198 1292.92 129.112 1294.25 131.641L1296.12 135.187L1293.36 138.09C1292.46 139.04 1291.92 140.312 1291.92 141.723C1291.92 144.63 1294.26 146.987 1297.16 146.987C1299.12 146.987 1300.85 145.903 1301.75 144.273L1303.53 141.054L1307.18 141.442C1307.67 141.494 1308.17 141.521 1308.67 141.521H1363.93C1372.55 141.521 1380.45 133.587 1380.45 122.685V114.403C1380.45 103.501 1372.55 95.5671 1363.93 95.5671H1308.67C1299.92 95.5671 1292.01 103.501 1292.01 114.551V122.833Z" fill="white"/>
<path d="M1289.33 154.146C1289.33 156.784 1287.24 158.923 1284.66 158.923C1282.09 158.923 1280 156.784 1280 154.146C1280 151.508 1282.09 149.369 1284.66 149.369C1287.24 149.369 1289.33 151.508 1289.33 154.146Z" fill="black"/>
<path fill-rule="evenodd" clip-rule="evenodd" d="M1284.66 153.333C1284.22 153.333 1283.87 153.697 1283.87 154.146C1283.87 154.595 1284.22 154.959 1284.66 154.959C1285.1 154.959 1285.46 154.595 1285.46 154.146C1285.46 153.697 1285.1 153.333 1284.66 153.333ZM1284.66 158.923C1287.24 158.923 1289.33 156.784 1289.33 154.146C1289.33 151.508 1287.24 149.369 1284.66 149.369C1282.09 149.369 1280 151.508 1280 154.146C1280 156.784 1282.09 158.923 1284.66 158.923Z" fill="white"/>
<path d="M1321.17 118.319C1321.17 121.02 1319.03 123.21 1316.39 123.21C1313.76 123.21 1311.62 121.02 1311.62 118.319C1311.62 115.618 1313.76 113.429 1316.39 113.429C1319.03 113.429 1321.17 115.618 1321.17 118.319Z" fill="white"/>
<path d="M1340.73 118.319C1340.73 121.02 1338.6 123.21 1335.96 123.21C1333.32 123.21 1331.18 121.02 1331.18 118.319C1331.18 115.618 1333.32 113.429 1335.96 113.429C1338.6 113.429 1340.73 115.618 1340.73 118.319Z" fill="white"/>
<path d="M1360.52 118.319C1360.52 121.02 1358.33 123.21 1355.63 123.21C1352.93 123.21 1350.74 121.02 1350.74 118.319C1350.74 115.618 1352.93 113.429 1355.63 113.429C1358.33 113.429 1360.52 115.618 1360.52 118.319Z" fill="white"/>
<path d="M68 133V114.324H65.9V121.52C64.808 120.036 63.156 119.14 61.336 119.14C57.78 119.14 55.316 121.94 55.316 126.252C55.316 130.648 57.808 133.336 61.336 133.336C63.24 133.336 64.892 132.356 65.9 130.984V133H68ZM61.84 131.46C59.124 131.46 57.5 129.248 57.5 126.252C57.5 123.256 59.124 121.016 61.84 121.016C63.52 121.016 65.144 122.024 65.9 123.2V129.332C65.144 130.508 63.52 131.46 61.84 131.46ZM74.3055 133V123.424C74.9215 122.332 76.6855 121.268 77.9735 121.268C78.3095 121.268 78.5615 121.296 78.8135 121.352V119.196C76.9655 119.196 75.3975 120.232 74.3055 121.66V119.476H72.2055V133H74.3055ZM92.0037 133V123.704C92.0037 120.428 89.6237 119.14 86.7677 119.14C84.5557 119.14 82.8197 119.868 81.3637 121.38L82.3437 122.836C83.5477 121.548 84.8637 120.96 86.4877 120.96C88.4477 120.96 89.9037 121.996 89.9037 123.816V126.252C88.8117 124.992 87.2717 124.404 85.4237 124.404C83.1277 124.404 80.6917 125.832 80.6917 128.856C80.6917 131.796 83.1277 133.336 85.4237 133.336C87.2437 133.336 88.7837 132.692 89.9037 131.46V133H92.0037ZM86.1797 131.824C84.2197 131.824 82.8477 130.592 82.8477 128.884C82.8477 127.148 84.2197 125.916 86.1797 125.916C87.6637 125.916 89.0917 126.476 89.9037 127.596V130.144C89.0917 131.264 87.6637 131.824 86.1797 131.824ZM114.637 133V123.228C114.637 120.512 113.321 119.14 110.857 119.14C108.897 119.14 107.077 120.428 106.321 121.66C105.929 120.26 104.753 119.14 102.681 119.14C100.693 119.14 98.8733 120.568 98.3133 121.436V119.476H96.2133V133H98.3133V123.116C99.0413 122.024 100.497 121.016 101.869 121.016C103.633 121.016 104.361 122.108 104.361 123.816V133H106.461V123.088C107.161 122.024 108.645 121.016 110.045 121.016C111.781 121.016 112.537 122.108 112.537 123.816V133H114.637ZM129.383 133V123.704C129.383 120.428 127.003 119.14 124.147 119.14C121.935 119.14 120.199 119.868 118.743 121.38L119.723 122.836C120.927 121.548 122.243 120.96 123.867 120.96C125.827 120.96 127.283 121.996 127.283 123.816V126.252C126.191 124.992 124.651 124.404 122.803 124.404C120.507 124.404 118.071 125.832 118.071 128.856C118.071 131.796 120.507 133.336 122.803 133.336C124.623 133.336 126.163 132.692 127.283 131.46V133H129.383ZM123.559 131.824C121.599 131.824 120.227 130.592 120.227 128.884C120.227 127.148 121.599 125.916 123.559 125.916C125.043 125.916 126.471 126.476 127.283 127.596V130.144C126.471 131.264 125.043 131.824 123.559 131.824ZM137.008 133.336C138.24 133.336 138.996 132.972 139.528 132.468L138.912 130.9C138.632 131.208 138.072 131.46 137.484 131.46C136.56 131.46 136.112 130.732 136.112 129.724V121.324H138.856V119.476H136.112V115.78H134.012V119.476H131.772V121.324H134.012V130.172C134.012 132.188 135.02 133.336 137.008 133.336ZM142.859 117.544C143.643 117.544 144.287 116.928 144.287 116.144C144.287 115.36 143.643 114.716 142.859 114.716C142.103 114.716 141.459 115.36 141.459 116.144C141.459 116.928 142.103 117.544 142.859 117.544ZM143.923 133V119.476H141.823V133H143.923ZM152.396 133.336C155.896 133.336 157.716 131.516 157.716 129.248C157.716 123.984 149.344 125.944 149.344 122.976C149.344 121.772 150.492 120.848 152.34 120.848C154.076 120.848 155.56 121.576 156.372 122.556L157.352 121.1C156.26 120.008 154.636 119.14 152.34 119.14C149.12 119.14 147.3 120.932 147.3 123.032C147.3 128.044 155.672 126.028 155.672 129.304C155.672 130.648 154.552 131.628 152.48 131.628C150.632 131.628 148.924 130.732 148.028 129.696L146.936 131.208C148.308 132.664 150.184 133.336 152.396 133.336ZM164.543 133.336C165.775 133.336 166.531 132.972 167.063 132.468L166.447 130.9C166.167 131.208 165.607 131.46 165.019 131.46C164.095 131.46 163.647 130.732 163.647 129.724V121.324H166.391V119.476H163.647V115.78H161.547V119.476H159.307V121.324H161.547V130.172C161.547 132.188 162.555 133.336 164.543 133.336ZM195.029 123.648C195.029 118.3 190.717 113.988 185.369 113.988C180.049 113.988 175.709 118.3 175.709 123.648C175.709 128.968 180.049 133.308 185.369 133.308C190.717 133.308 195.029 128.968 195.029 123.648ZM194.161 123.648C194.161 128.492 190.213 132.44 185.369 132.44C180.525 132.44 176.577 128.492 176.577 123.648C176.577 118.804 180.525 114.856 185.369 114.856C190.213 114.856 194.161 118.804 194.161 123.648ZM188.813 127.064C188.085 128.044 186.769 128.688 185.425 128.688C182.905 128.688 180.637 126.56 180.637 123.62C180.637 120.596 182.905 118.58 185.425 118.58C186.741 118.58 188.085 119.196 188.813 120.176L189.513 119.504C188.533 118.356 187.161 117.656 185.425 117.656C182.205 117.656 179.601 120.204 179.601 123.62C179.601 127.036 182.205 129.612 185.425 129.612C187.161 129.612 188.533 128.94 189.541 127.764L188.813 127.064ZM217.824 133V130.928H208.668C213.876 126.812 217.74 123.34 217.74 119.532C217.74 115.808 214.576 114.044 211.468 114.044C208.836 114.044 206.4 115.108 204.972 116.984L206.4 118.468C207.492 117.068 209.228 116.116 211.468 116.116C213.4 116.116 215.36 117.152 215.36 119.532C215.36 122.752 211.72 125.86 205 131.152V133H217.824ZM228.517 133.336C233.613 133.336 235.657 128.212 235.657 123.676C235.657 119.112 233.613 114.044 228.517 114.044C223.393 114.044 221.377 119.112 221.377 123.676C221.377 128.212 223.393 133.336 228.517 133.336ZM228.517 131.264C224.961 131.264 223.757 127.4 223.757 123.676C223.757 119.952 224.961 116.116 228.517 116.116C232.073 116.116 233.277 119.952 233.277 123.676C233.277 127.4 232.073 131.264 228.517 131.264ZM244.402 133V114.324H242.358L237.682 119.14L239.082 120.568L242.078 117.404V133H244.402ZM254.114 133.308C259.35 133.308 261.702 128.716 261.702 123.676C261.702 118.58 259.714 114.016 254.478 114.016C250.418 114.016 247.954 116.9 247.954 120.12C247.954 124.096 250.726 126.084 254.086 126.084C256.466 126.084 258.538 124.46 259.35 123.172C259.378 123.424 259.378 123.676 259.378 123.928C259.378 127.456 257.894 131.236 254.114 131.236C252.182 131.236 251.062 130.452 250.11 129.332L248.934 131.068C250.11 132.412 251.734 133.308 254.114 133.308ZM254.618 124.068C252.21 124.068 250.306 122.78 250.306 120.036C250.306 118.272 251.734 116.088 254.59 116.088C257.838 116.088 259.07 118.972 259.266 121.296C258.286 122.948 256.466 124.068 254.618 124.068ZM270.685 127.148V125.3H263.965V127.148H270.685ZM285.856 133V130.928H276.7C281.908 126.812 285.772 123.34 285.772 119.532C285.772 115.808 282.608 114.044 279.5 114.044C276.868 114.044 274.432 115.108 273.004 116.984L274.432 118.468C275.524 117.068 277.26 116.116 279.5 116.116C281.432 116.116 283.392 117.152 283.392 119.532C283.392 122.752 279.752 125.86 273.032 131.152V133H285.856ZM296.548 133.336C301.644 133.336 303.688 128.212 303.688 123.676C303.688 119.112 301.644 114.044 296.548 114.044C291.424 114.044 289.408 119.112 289.408 123.676C289.408 128.212 291.424 133.336 296.548 133.336ZM296.548 131.264C292.992 131.264 291.788 127.4 291.788 123.676C291.788 119.952 292.992 116.116 296.548 116.116C300.104 116.116 301.308 119.952 301.308 123.676C301.308 127.4 300.104 131.264 296.548 131.264ZM319.461 133V130.928H310.305C315.513 126.812 319.377 123.34 319.377 119.532C319.377 115.808 316.213 114.044 313.105 114.044C310.473 114.044 308.037 115.108 306.609 116.984L308.037 118.468C309.129 117.068 310.865 116.116 313.105 116.116C315.037 116.116 316.997 117.152 316.997 119.532C316.997 122.752 313.357 125.86 306.637 131.152V133H319.461ZM330.154 133.336C335.25 133.336 337.294 128.212 337.294 123.676C337.294 119.112 335.25 114.044 330.154 114.044C325.03 114.044 323.014 119.112 323.014 123.676C323.014 128.212 325.03 133.336 330.154 133.336ZM330.154 131.264C326.598 131.264 325.394 127.4 325.394 123.676C325.394 119.952 326.598 116.116 330.154 116.116C333.71 116.116 334.914 119.952 334.914 123.676C334.914 127.4 333.71 131.264 330.154 131.264Z" fill="white"/>
</svg>
