<svg width="119" height="32" viewBox="0 0 119 32" fill="none" xmlns="http://www.w3.org/2000/svg">
<path d="M0 31.5855C0 31.5855 4.53404 30.6736 4.31106 18.4041V13.7617C4.31106 6.13471 9.81137 0 16.6496 0H106.736C113.5 0 119 6.13471 119 13.6788V18.3212C119 25.8653 113.5 32 106.736 32H16.6496C13.7508 32 11.075 30.8394 8.91942 28.9326C8.10181 29.5959 3.49344 32.4145 0 31.5855Z" fill="white"/>
<path fill-rule="evenodd" clip-rule="evenodd" d="M4.20309 31.2668C2.82088 31.6881 1.32968 31.901 0 31.5855C0 31.5855 1.3694 31.3101 2.56603 29.0254C3.54679 27.1529 4.41149 23.9307 4.31106 18.4041V13.7617C4.31106 6.13472 9.81137 0 16.6496 0H106.736C113.5 0 119 6.13471 119 13.6788V18.3212C119 25.8653 113.5 32 106.736 32H16.6496C13.7508 32 11.075 30.8394 8.91942 28.9326C8.41301 29.3434 6.45235 30.5811 4.20309 31.2668ZM5.79094 27.8373C6.01626 27.7215 6.22641 27.6068 6.41761 27.4972C6.6758 27.3494 6.8916 27.2155 7.05606 27.1072C7.13815 27.0532 7.20376 27.008 7.25282 26.9729C7.30233 26.9375 7.3249 26.9196 7.32626 26.9185L7.32632 26.9185L8.99024 25.5688L10.5958 26.9891C12.3506 28.5413 14.4467 29.4194 16.6496 29.4194H106.736C111.866 29.4194 116.452 24.6801 116.452 18.3212V13.6788C116.452 7.31987 111.866 2.58065 106.736 2.58065H16.6496C11.4447 2.58065 6.85935 7.31987 6.85935 13.7617V18.3807C6.93218 22.4921 6.49942 25.5528 5.79094 27.8373Z" fill="black"/>
<path d="M17.4666 22.9194C16.1273 22.9194 15.048 22.4291 14.2288 21.4484C13.4096 20.4542 13 19.1243 13 17.4584C13 15.8195 13.4096 14.5029 14.2288 13.5088C15.048 12.5013 16.1208 11.9975 17.4471 11.9975C18.7084 11.9975 19.6836 12.4878 20.3728 13.4685H20.5678V7.62468H24.2152V22.6574H20.5678V21.4484H20.3728C19.6836 22.4291 18.7149 22.9194 17.4666 22.9194ZM17.2325 19.1108C17.6226 19.5407 18.1102 19.7557 18.6954 19.7557C19.2805 19.7557 19.7616 19.5407 20.1387 19.1108C20.5288 18.6675 20.7239 18.1167 20.7239 17.4584C20.7239 16.8002 20.5288 16.2561 20.1387 15.8262C19.7616 15.3829 19.2805 15.1612 18.6954 15.1612C18.1102 15.1612 17.6226 15.3829 17.2325 15.8262C16.8554 16.2561 16.6669 16.8002 16.6669 17.4584C16.6669 18.1167 16.8554 18.6675 17.2325 19.1108Z" fill="black"/>
<path d="M25.9238 22.6574V12.2594H29.5517V13.7305H29.7663C29.9873 13.22 30.3059 12.817 30.722 12.5214C31.1381 12.2124 31.5997 12.0579 32.1068 12.0579C32.5099 12.0579 32.8805 12.1453 33.2186 12.3199V15.665C32.5944 15.3829 32.0093 15.2418 31.4632 15.2418C30.904 15.2418 30.4489 15.45 30.0979 15.8665C29.7468 16.283 29.5712 16.827 29.5712 17.4987V22.6574H25.9238Z" fill="black"/>
<path d="M37.0572 22.8992C36.043 22.8992 35.2303 22.6373 34.6191 22.1133C34.008 21.576 33.7024 20.8438 33.7024 19.9169C33.7024 18.9228 34.099 18.1436 34.8922 17.5793C35.6854 17.0017 36.9142 16.5987 38.5786 16.3703L40.334 16.1486V15.6851C40.334 15.2955 40.217 14.9866 39.9829 14.7582C39.7489 14.5164 39.4238 14.3955 39.0077 14.3955C38.6046 14.3955 38.273 14.5231 38.0129 14.7783C37.7659 15.0336 37.6424 15.3762 37.6424 15.806H34.112C34.112 14.6507 34.5606 13.7305 35.4578 13.0453C36.355 12.3468 37.5513 11.9975 39.0467 11.9975C40.5421 11.9975 41.7383 12.3468 42.6356 13.0453C43.5458 13.7305 44.0009 14.6574 44.0009 15.8262V22.6574H40.334V21.4282H40.139C39.8659 21.8984 39.4498 22.2611 38.8907 22.5164C38.3445 22.7716 37.7334 22.8992 37.0572 22.8992ZM38.4811 20.6222C39.0272 20.6222 39.4693 20.4475 39.8074 20.0982C40.1585 19.749 40.334 19.3056 40.334 18.7683V18.1436L38.7151 18.3854C37.7139 18.5197 37.2133 18.9093 37.2133 19.5542C37.2133 19.8766 37.3238 20.1385 37.5448 20.34C37.7789 20.5281 38.091 20.6222 38.4811 20.6222Z" fill="black"/>
<path d="M45.6 22.6574V12.2594H49.2278V13.932H49.4424C49.7415 13.3409 50.1446 12.8707 50.6517 12.5214C51.1588 12.1721 51.7245 11.9975 52.3486 11.9975C52.9988 11.9975 53.5969 12.1856 54.143 12.5617C54.6892 12.9244 55.0858 13.4013 55.3328 13.9924H55.5279C55.7879 13.3745 56.1845 12.8908 56.7177 12.5416C57.2508 12.1923 57.8749 12.0176 58.5901 12.0176C59.6434 12.0176 60.5081 12.3938 61.1842 13.1461C61.8734 13.885 62.218 14.8522 62.218 16.0479V22.6574H58.5511V16.8942C58.5511 16.4106 58.4211 16.0076 58.161 15.6851C57.9009 15.3493 57.5499 15.1746 57.1077 15.1612C56.6656 15.1612 56.3146 15.3224 56.0545 15.6448C55.7944 15.9673 55.6644 16.3837 55.6644 16.8942V22.6574H51.9975V16.8942C51.9975 16.3703 51.874 15.9538 51.6269 15.6448C51.3799 15.3224 51.0483 15.1612 50.6322 15.1612C50.2031 15.1612 49.865 15.3224 49.6179 15.6448C49.3709 15.9538 49.2474 16.3703 49.2474 16.8942V22.6574H45.6Z" fill="black"/>
<path d="M66.6571 22.8992C65.6429 22.8992 64.8302 22.6373 64.219 22.1133C63.6079 21.576 63.3023 20.8438 63.3023 19.9169C63.3023 18.9228 63.6989 18.1436 64.4921 17.5793C65.2853 17.0017 66.5141 16.5987 68.1785 16.3703L69.9339 16.1486V15.6851C69.9339 15.2955 69.8169 14.9866 69.5828 14.7582C69.3488 14.5164 69.0237 14.3955 68.6076 14.3955C68.2045 14.3955 67.8729 14.5231 67.6129 14.7783C67.3658 15.0336 67.2423 15.3762 67.2423 15.806H63.7119C63.7119 14.6507 64.1605 13.7305 65.0577 13.0453C65.955 12.3468 67.1512 11.9975 68.6466 11.9975C70.142 11.9975 71.3383 12.3468 72.2355 13.0453C73.1457 13.7305 73.6008 14.6574 73.6008 15.8262V22.6574H69.9339V21.4282H69.7389C69.4658 21.8984 69.0497 22.2611 68.4906 22.5164C67.9444 22.7716 67.3333 22.8992 66.6571 22.8992ZM68.081 20.6222C68.6271 20.6222 69.0692 20.4475 69.4073 20.0982C69.7584 19.749 69.9339 19.3056 69.9339 18.7683V18.1436L68.315 18.3854C67.3138 18.5197 66.8132 18.9093 66.8132 19.5542C66.8132 19.8766 66.9237 20.1385 67.1447 20.34C67.3788 20.5281 67.6909 20.6222 68.081 20.6222Z" fill="black"/>
<path d="M79.5104 22.9194C78.4182 22.9194 77.5404 22.5567 76.8773 21.8312C76.2141 21.0924 75.8825 20.1184 75.8825 18.9093V14.9395H74.5952V12.2594H76.0191L76.6822 9.01511H79.5494V12.2594H81.6559V14.9395H79.5494V18.728C79.5494 19.131 79.6535 19.4601 79.8615 19.7154C80.0826 19.9572 80.3751 20.0781 80.7392 20.0781C81.0253 20.0781 81.3504 20.0311 81.7145 19.937V22.5567C81.0643 22.7985 80.3296 22.9194 79.5104 22.9194Z" fill="black"/>
<path d="M84.8818 11.131C84.2837 11.131 83.7896 10.9362 83.3995 10.5466C83.0094 10.157 82.8143 9.65995 82.8143 9.05542C82.8143 8.45088 83.0094 7.96054 83.3995 7.58438C83.7896 7.19479 84.2837 7 84.8818 7C85.493 7 85.9936 7.19479 86.3837 7.58438C86.7738 7.96054 86.9688 8.45088 86.9688 9.05542C86.9688 9.65995 86.7738 10.157 86.3837 10.5466C85.9936 10.9362 85.493 11.131 84.8818 11.131ZM83.0679 22.6574V12.2594H86.7153V22.6574H83.0679Z" fill="black"/>
<path d="M93.0202 23C91.5118 23 90.3155 22.6641 89.4313 21.9924C88.5471 21.3207 88.105 20.4005 88.105 19.2317H91.2062C91.2062 19.6751 91.3753 20.0311 91.7133 20.2997C92.0644 20.5684 92.526 20.7028 93.0982 20.7028C93.5273 20.7028 93.8784 20.6154 94.1514 20.4408C94.4245 20.2527 94.561 20.0042 94.561 19.6952C94.561 19.3594 94.405 19.131 94.0929 19.0101C93.7809 18.8892 93.2997 18.7951 92.6496 18.728C91.2712 18.5936 90.3155 18.3988 89.7824 18.1436C88.7031 17.6599 88.1635 16.78 88.1635 15.5038C88.1635 14.4156 88.5926 13.5491 89.4508 12.9043C90.322 12.2594 91.4793 11.937 92.9226 11.937C94.34 11.937 95.5038 12.2594 96.414 12.9043C97.3242 13.5357 97.7793 14.3753 97.7793 15.4232H94.5415C94.5285 15.0605 94.3725 14.7716 94.0734 14.5567C93.7744 14.3283 93.3908 14.2141 92.9226 14.2141C92.5065 14.2141 92.1685 14.3014 91.9084 14.4761C91.6483 14.6507 91.5183 14.8791 91.5183 15.1612C91.5183 15.4702 91.6873 15.6851 92.0254 15.806C92.3765 15.927 92.9161 16.0277 93.6443 16.1083C93.8264 16.1217 93.9629 16.1352 94.0539 16.1486C94.496 16.2024 94.8796 16.2628 95.2047 16.33C95.5298 16.3837 95.8874 16.4845 96.2775 16.6322C96.6805 16.78 97.0121 16.9614 97.2722 17.1763C97.5322 17.3778 97.7468 17.6599 97.9158 18.0227C98.0979 18.3854 98.1889 18.8018 98.1889 19.272C98.1889 20.4274 97.7273 21.3409 96.8041 22.0126C95.8809 22.6709 94.6196 23 93.0202 23Z" fill="black"/>
<path d="M103.834 22.9194C102.742 22.9194 101.864 22.5567 101.201 21.8312C100.538 21.0924 100.206 20.1184 100.206 18.9093V14.9395H98.919V12.2594H100.343L101.006 9.01511H103.873V12.2594H105.98V14.9395H103.873V18.728C103.873 19.131 103.977 19.4601 104.185 19.7154C104.406 19.9572 104.699 20.0781 105.063 20.0781C105.349 20.0781 105.674 20.0311 106.038 19.937V22.5567C105.388 22.7985 104.653 22.9194 103.834 22.9194Z" fill="black"/>
<path d="M110.415 22.3149C110.038 22.691 109.55 22.8791 108.952 22.8791C108.354 22.8791 107.86 22.691 107.47 22.3149C107.093 21.9253 106.904 21.4349 106.904 20.8438C106.904 20.2527 107.093 19.7691 107.47 19.3929C107.86 19.0034 108.354 18.8086 108.952 18.8086C109.55 18.8086 110.038 19.0034 110.415 19.3929C110.805 19.7691 111 20.2527 111 20.8438C111 21.4349 110.805 21.9253 110.415 22.3149Z" fill="black"/>
<path fill-rule="evenodd" clip-rule="evenodd" d="M14.2427 21.4384L14.2424 21.438C13.412 20.4373 13 19.1017 13 17.4383C13 15.8014 13.4121 14.4794 14.2422 13.4788C15.073 12.4641 16.1626 11.9566 17.505 11.9566C18.7717 11.9566 19.7591 12.4426 20.4593 13.4156H20.558V7.61958H24.3281V22.6602H20.558V21.461H20.4593C19.7594 22.4339 18.7785 22.9201 17.5245 22.9201C16.1698 22.9201 15.0738 22.4265 14.2427 21.4384ZM20.4269 21.3957H20.6217V22.5949H24.2644V7.68496H20.6217V13.481H20.4269C19.7387 12.5084 18.7647 12.022 17.505 12.022C16.1804 12.022 15.1091 12.5217 14.2909 13.521C13.4728 14.507 13.0637 15.8128 13.0637 17.4383C13.0637 19.0906 13.4728 20.4097 14.2909 21.3957C15.1091 22.3683 16.1869 22.8547 17.5245 22.8547C18.7712 22.8547 19.7387 22.3683 20.4269 21.3957ZM20.146 15.8634L20.1453 15.8626C19.7811 15.4374 19.3183 15.2253 18.7517 15.2253C18.1851 15.2253 17.7153 15.4375 17.3379 15.8634C16.9734 16.2761 16.7896 16.7994 16.7896 17.4383C16.7896 18.0769 16.9732 18.6071 17.338 19.0333C17.715 19.4456 18.1848 19.6514 18.7517 19.6514C19.3189 19.6514 19.782 19.4454 20.1459 19.0333L20.146 19.0333C20.5238 18.6068 20.7138 18.0767 20.7138 17.4383C20.7138 16.8 20.5239 16.277 20.1467 15.8642L20.146 15.8634ZM25.907 22.6602V12.2165H29.6577V13.6755H29.7672C29.9915 13.1774 30.3111 12.781 30.726 12.4882C31.1522 12.1741 31.626 12.0166 32.1457 12.0166C32.5575 12.0166 32.9375 12.1053 33.2846 12.2833L33.3198 12.3014V15.7595L33.2305 15.7194C32.6133 15.4424 32.0376 15.3052 31.5029 15.3052C30.962 15.3052 30.5253 15.5043 30.1874 15.9024C29.849 16.3011 29.6771 16.8243 29.6771 17.4783V22.6602H25.907ZM30.7627 12.5417C30.3471 12.8348 30.029 13.2345 29.8082 13.7409H29.5939V12.2818H25.9708V22.5949H29.6134V17.4783C29.6134 16.8121 29.7887 16.2725 30.1393 15.8594C30.49 15.4464 30.9445 15.2398 31.5029 15.2398C32.0297 15.2398 32.5928 15.3703 33.1923 15.6314C33.2135 15.6406 33.2347 15.65 33.256 15.6596V12.3418C32.9184 12.1686 32.5483 12.082 32.1457 12.082C31.6393 12.082 31.1782 12.2352 30.7627 12.5417ZM34.614 22.1055L34.6134 22.105C33.9871 21.558 33.6755 20.8127 33.6755 19.8767C33.6755 18.8693 34.0818 18.0765 34.891 17.5047C35.6956 16.9228 36.9348 16.5213 38.6007 16.2943L38.6013 16.2942L40.2985 16.0814V15.6795C40.2985 15.3078 40.1866 15.0197 39.9678 14.8077L39.9671 14.807L39.9665 14.8064C39.7476 14.5818 39.4408 14.4658 39.0376 14.4658C38.6495 14.4658 38.3349 14.5872 38.0886 14.827C37.8565 15.0655 37.7378 15.3872 37.7378 15.7995V15.8648H34.0845V15.7995C34.0845 14.633 34.542 13.7008 35.4542 13.009C36.3644 12.3052 37.5739 11.9566 39.0766 11.9566C40.579 11.9566 41.7885 12.3051 42.6987 13.0088C43.624 13.7007 44.088 14.6396 44.088 15.8194V22.6602H40.2985V21.4411H40.2032C39.9226 21.9051 39.5025 22.2626 38.9467 22.5147C38.3921 22.772 37.7727 22.9001 37.0897 22.9001C36.0661 22.9001 35.2387 22.6374 34.614 22.1055ZM38.9207 22.4549C39.4791 22.2018 39.8947 21.842 40.1674 21.3757H40.3622V22.5949H44.0243V15.8194C44.0243 14.6602 43.5698 13.7409 42.6608 13.0613C41.7647 12.3685 40.57 12.022 39.0766 12.022C37.5831 12.022 36.3884 12.3685 35.4924 13.0613C34.6134 13.7279 34.1656 14.6188 34.1488 15.7341C34.1484 15.7558 34.1483 15.7776 34.1483 15.7995H37.674C37.674 15.3731 37.7974 15.0333 38.0442 14.7801C38.3039 14.527 38.635 14.4004 39.0376 14.4004C39.4532 14.4004 39.7778 14.5203 40.0116 14.7602C40.2453 14.9867 40.3622 15.2931 40.3622 15.6795V16.1392L38.6091 16.3591C36.9468 16.5856 35.7196 16.9853 34.9275 17.5583C34.1353 18.1179 33.7392 18.8907 33.7392 19.8767C33.7392 20.7961 34.0444 21.5222 34.6547 22.0552C35.2651 22.5749 36.0767 22.8347 37.0897 22.8347C37.7649 22.8347 38.3753 22.7081 38.9207 22.4549ZM39.7916 20.0099L39.792 20.0095C40.1293 19.6763 40.2985 19.254 40.2985 18.7375V18.1934L38.7545 18.4224L38.7541 18.4225L38.7536 18.4226C38.2586 18.4885 37.8962 18.6162 37.6588 18.7997C37.4248 18.9806 37.3092 19.2178 37.3092 19.5169C37.3092 19.8185 37.4122 20.0596 37.6173 20.2461C37.8367 20.4204 38.1327 20.5108 38.5117 20.5108C39.0428 20.5108 39.4672 20.3427 39.7912 20.0103L39.7916 20.0099ZM37.5766 20.2964C37.3559 20.0965 37.2455 19.8367 37.2455 19.5169C37.2455 18.8774 37.7455 18.491 38.7454 18.3577L40.3622 18.1179V18.7375C40.3622 19.2704 40.1869 19.7101 39.8363 20.0566C39.4986 20.403 39.0571 20.5762 38.5117 20.5762C38.1221 20.5762 37.8104 20.483 37.5766 20.2964ZM45.5576 22.6602V12.2165H49.3082V13.8753H49.4203C49.7218 13.2963 50.1254 12.8332 50.6311 12.4873C51.1483 12.1335 51.7256 11.9566 52.3612 11.9566C53.023 11.9566 53.6325 12.147 54.1882 12.527C54.7313 12.8853 55.1302 13.355 55.3831 13.9353H55.4948C55.7596 13.3295 56.1583 12.8527 56.6904 12.5064C57.2343 12.1525 57.8699 11.9766 58.5945 11.9766C59.6628 11.9766 60.5436 12.3563 61.2317 13.1164C61.933 13.8634 62.2814 14.8398 62.2814 16.0393V22.6602H58.4918V16.8787C58.4918 16.4119 58.3658 16.0277 58.117 15.7214L58.1166 15.7209L58.1162 15.7204C57.8692 15.4035 57.5369 15.2383 57.1132 15.2253C56.6891 15.2255 56.3575 15.3782 56.1112 15.6814C55.863 15.9871 55.7364 16.3843 55.7364 16.8787V22.6602H51.9468V16.8787C51.9468 16.3695 51.826 15.9728 51.5913 15.6812L51.5909 15.6807L51.5904 15.6801C51.3564 15.3768 51.0441 15.2253 50.647 15.2253C50.2362 15.2253 49.9176 15.3774 49.684 15.6801L49.6836 15.6807L49.6832 15.6812C49.4485 15.9728 49.3277 16.3695 49.3277 16.8787V22.6602H45.5576ZM61.1853 13.1612C60.51 12.4151 59.6464 12.042 58.5945 12.042C57.8803 12.042 57.257 12.2152 56.7245 12.5617C56.1921 12.9081 55.796 13.3878 55.5363 14.0007H55.3415C55.0948 13.4144 54.6987 12.9414 54.1532 12.5816C53.6078 12.2086 53.0105 12.022 52.3612 12.022C51.7378 12.022 51.1729 12.1952 50.6665 12.5417C50.16 12.8881 49.7574 13.3544 49.4587 13.9407H49.2445V12.2818H45.6213V22.5949H49.2639V16.8787C49.2639 16.3591 49.3873 15.946 49.634 15.6396C49.8808 15.3198 50.2184 15.1599 50.647 15.1599C51.0625 15.1599 51.3937 15.3198 51.6404 15.6396C51.8872 15.946 52.0105 16.3591 52.0105 16.8787V22.5949H55.6726V16.8787C55.6726 16.3724 55.8025 15.9593 56.0622 15.6396C56.322 15.3198 56.6726 15.1599 57.1141 15.1599C57.5556 15.1732 57.9063 15.3464 58.166 15.6795C58.4257 15.9993 58.5556 16.3991 58.5556 16.8787V22.5949H62.2177V16.0393C62.2177 14.8534 61.8736 13.8941 61.1853 13.1612ZM64.1754 22.1055L64.1748 22.105C63.5485 21.558 63.2369 20.8127 63.2369 19.8767C63.2369 18.8693 63.6432 18.0764 64.4524 17.5046C65.2571 16.9228 66.4963 16.5213 68.1621 16.2943L68.1627 16.2942L69.8599 16.0814V15.6795C69.8599 15.3078 69.748 15.0197 69.5292 14.8077L69.5285 14.807L69.5279 14.8064C69.309 14.5818 69.0022 14.4658 68.599 14.4658C68.2109 14.4658 67.8964 14.5872 67.6501 14.8269C67.4179 15.0655 67.2992 15.3872 67.2992 15.7995V15.8648H63.6459V15.7995C63.6459 14.633 64.1035 13.7008 65.0157 13.0089C65.9259 12.3052 67.1354 11.9566 68.638 11.9566C70.1404 11.9566 71.3499 12.3052 72.2601 13.0088C73.1854 13.7007 73.6495 14.6396 73.6495 15.8194V22.6602H69.8599V21.4411H69.7646C69.4841 21.9051 69.064 22.2625 68.5083 22.5146C67.9536 22.772 67.3342 22.9001 66.6511 22.9001C65.6275 22.9001 64.8001 22.6374 64.1754 22.1055ZM68.4821 22.4549C69.0405 22.2018 69.4561 21.842 69.7288 21.3757H69.9236V22.5949H73.5857V15.8194C73.5857 14.6602 73.1312 13.7409 72.2222 13.0613C71.3261 12.3685 70.1314 12.022 68.638 12.022C67.1445 12.022 65.9498 12.3685 65.0538 13.0613C64.1748 13.7279 63.727 14.6188 63.7102 15.7341C63.7099 15.7558 63.7097 15.7776 63.7097 15.7995H67.2354C67.2354 15.3731 67.3588 15.0333 67.6056 14.7801C67.8653 14.527 68.1964 14.4004 68.599 14.4004C69.0146 14.4004 69.3392 14.5203 69.573 14.7602C69.8067 14.9867 69.9236 15.2931 69.9236 15.6795V16.1392L68.1705 16.3591C66.5082 16.5856 65.281 16.9853 64.4889 17.5583C63.6967 18.1179 63.3006 18.8907 63.3006 19.8767C63.3006 20.7961 63.6058 21.5222 64.2162 22.0552C64.8265 22.5749 65.6381 22.8347 66.6511 22.8347C67.3264 22.8347 67.9367 22.7081 68.4821 22.4549ZM69.353 20.0099L69.3534 20.0095C69.6907 19.6763 69.8599 19.254 69.8599 18.7375V18.1934L68.3159 18.4224L68.3155 18.4225L68.315 18.4226C67.82 18.4885 67.4576 18.6162 67.2202 18.7997C66.9862 18.9806 66.8706 19.2178 66.8706 19.5169C66.8706 19.8185 66.9736 20.0596 67.1787 20.246C67.3981 20.4204 67.6941 20.5108 68.0731 20.5108C68.6042 20.5108 69.0286 20.3427 69.3526 20.0103L69.353 20.0099ZM67.1381 20.2964C66.9173 20.0965 66.8069 19.8367 66.8069 19.5169C66.8069 18.8774 67.3069 18.491 68.3068 18.3577L69.9236 18.1179V18.7375C69.9236 19.2704 69.7483 19.7101 69.3977 20.0566C69.06 20.403 68.6185 20.5762 68.0731 20.5762C67.6835 20.5762 67.3718 20.483 67.1381 20.2964ZM76.8116 21.8203L76.8112 21.8199C76.1359 21.0726 75.8007 20.0896 75.8007 18.8774V15.0054H74.5151V12.2165H75.9492L76.6114 8.99864H79.5903V12.2165H81.6941V15.0054H79.5903V18.6975C79.5903 19.0844 79.6904 19.3945 79.8859 19.6333C80.0928 19.8574 80.367 19.9712 80.7148 19.9712C80.994 19.9712 81.3133 19.9256 81.6733 19.8333L81.7525 19.8129V22.5409L81.7104 22.5564C81.053 22.7993 80.3118 22.9201 79.4876 22.9201C78.3818 22.9201 77.4875 22.5547 76.8116 21.8203ZM79.8383 19.6768C79.6305 19.4237 79.5266 19.0972 79.5266 18.6975V14.94H81.6304V12.2818H79.5266V9.06402H76.6631L76.0008 12.2818H74.5789V14.94H75.8645V18.8774C75.8645 20.0766 76.1956 21.0426 76.8579 21.7754C77.5202 22.4949 78.3968 22.8547 79.4876 22.8547C80.3058 22.8547 81.0395 22.7348 81.6888 22.4949V19.8967C81.6674 19.9022 81.6462 19.9075 81.6251 19.9127C81.2871 19.9953 80.9837 20.0366 80.7148 20.0366C80.3512 20.0366 80.059 19.9167 79.8383 19.6768ZM82.9767 22.6602V12.2165H86.7469V22.6602H82.9767ZM88.0073 19.1318H91.232V19.1972C91.232 19.6165 91.3916 19.9503 91.7132 20.2043C92.0498 20.4599 92.4961 20.5908 93.0577 20.5908C93.4778 20.5908 93.8154 20.506 94.0751 20.3414C94.3315 20.1657 94.4549 19.9388 94.4549 19.6568C94.4549 19.501 94.4186 19.375 94.3497 19.2748C94.2807 19.1745 94.1755 19.0949 94.0288 19.0385C93.7252 18.9217 93.2515 18.8291 92.6036 18.7626C91.2276 18.6294 90.2636 18.4357 89.7201 18.1775C89.1718 17.9334 88.7571 17.5875 88.4798 17.1386C88.2026 16.6896 88.0657 16.1422 88.0657 15.4997C88.0657 14.3993 88.5042 13.5203 89.3776 12.8685L89.378 12.8683C90.2621 12.2184 91.4322 11.8967 92.8824 11.8967C94.307 11.8967 95.4827 12.2185 96.4049 12.8672C97.3298 13.5045 97.7965 14.3567 97.7965 15.4197V15.4851H94.4378L94.4355 15.4221C94.4233 15.0838 94.2782 14.8159 93.9953 14.614L93.9945 14.6134L93.9938 14.6129C93.7086 14.3966 93.3398 14.2859 92.8824 14.2859C92.4751 14.2859 92.1506 14.3708 91.9042 14.5352C91.6597 14.6982 91.5436 14.9055 91.5436 15.1599C91.5436 15.3 91.5819 15.4148 91.656 15.5084C91.7308 15.6028 91.8458 15.6803 92.0068 15.7375C92.3505 15.855 92.8834 15.9543 93.6088 16.0341C93.7899 16.0474 93.9274 16.0608 94.0204 16.0744C94.4622 16.1277 94.8465 16.1878 95.1728 16.2547C95.502 16.3089 95.8627 16.41 96.2546 16.5574C96.6615 16.7056 96.9989 16.8884 97.2653 17.1068C97.5342 17.3139 97.754 17.6022 97.9262 17.9689C98.113 18.339 98.2056 18.7623 98.2056 19.2371C98.2056 20.4045 97.7343 21.3304 96.7955 22.0087L96.795 22.0091C95.8587 22.6721 94.5848 23 92.9798 23C91.4648 23 90.2553 22.665 89.3578 21.988C88.4579 21.309 88.0073 20.3764 88.0073 19.1972V19.1318ZM97.8691 17.998C97.7003 17.6382 97.486 17.3584 97.2263 17.1585C96.9666 16.9453 96.6354 16.7655 96.2329 16.6189C95.8433 16.4723 95.4862 16.3724 95.1615 16.3191C94.8368 16.2525 94.4538 16.1925 94.0122 16.1392C93.9213 16.1259 93.785 16.1126 93.6031 16.0993C92.8759 16.0193 92.337 15.9194 91.9864 15.7995C91.6487 15.6795 91.4799 15.4664 91.4799 15.1599C91.4799 14.8801 91.6098 14.6536 91.8695 14.4804C92.1292 14.3071 92.4669 14.2205 92.8824 14.2205C93.3499 14.2205 93.733 14.3338 94.0317 14.5603C94.3304 14.7735 94.4862 15.06 94.4992 15.4197H97.7328C97.7328 15.3978 97.7326 15.376 97.7322 15.3543C97.7134 14.3454 97.2591 13.5345 96.3692 12.9214C95.4602 12.2818 94.2979 11.9621 92.8824 11.9621C91.4409 11.9621 90.2852 12.2818 89.4151 12.9214C88.558 13.561 88.1295 14.4204 88.1295 15.4997C88.1295 16.7655 88.6684 17.6382 89.7462 18.1179C90.2787 18.371 91.2332 18.5642 92.6097 18.6975C93.259 18.7641 93.7395 18.8574 94.0512 18.9773C94.3629 19.0972 94.5187 19.3237 94.5187 19.6568C94.5187 19.9633 94.3823 20.2098 94.1096 20.3963C93.8369 20.5696 93.4863 20.6562 93.0577 20.6562C92.4863 20.6562 92.0253 20.5229 91.6747 20.2564C91.3371 19.99 91.1682 19.6369 91.1682 19.1972H88.071C88.071 19.219 88.0712 19.2408 88.0715 19.2625C88.0879 20.3907 88.5292 21.2817 89.3956 21.9353C90.2787 22.6015 91.4734 22.9346 92.9798 22.9346C94.5771 22.9346 95.8368 22.6082 96.7588 21.9553C97.6808 21.2891 98.1418 20.383 98.1418 19.2371C98.1418 18.7708 98.0509 18.3577 97.8691 17.998ZM101.104 21.8203L101.103 21.8199C100.428 21.0726 100.093 20.0896 100.093 18.8774V15.0054H98.8072V12.2165H100.241L100.904 8.99864H103.882V12.2165H105.986V15.0054H103.882V18.6975C103.882 19.0844 103.983 19.3944 104.178 19.6333C104.385 19.8574 104.659 19.9712 105.007 19.9712C105.286 19.9712 105.605 19.9256 105.965 19.8333L106.045 19.8129V22.5409L106.002 22.5564C105.345 22.7993 104.604 22.9201 103.78 22.9201C102.674 22.9201 101.78 22.5547 101.104 21.8203ZM104.13 19.6768C103.923 19.4237 103.819 19.0972 103.819 18.6975V14.94H105.922V12.2818H103.819V9.06402H100.955L100.293 12.2818H98.8709V14.94H100.157V18.8774C100.157 20.0766 100.488 21.0426 101.15 21.7754C101.812 22.4949 102.689 22.8547 103.78 22.8547C104.598 22.8547 105.332 22.7348 105.981 22.4949V19.8967C105.96 19.9022 105.938 19.9075 105.917 19.9127C105.579 19.9953 105.276 20.0366 105.007 20.0366C104.643 20.0366 104.351 19.9167 104.13 19.6768ZM110.396 22.3021C110.006 22.6886 109.502 22.8801 108.891 22.8801C108.28 22.8801 107.77 22.6887 107.367 22.3029L107.366 22.3021L107.365 22.3013C106.976 21.9017 106.782 21.3983 106.782 20.7961C106.782 20.1939 106.976 19.6966 107.366 19.31C107.769 18.9106 108.279 18.7121 108.891 18.7121C109.503 18.7121 110.006 18.9103 110.396 19.31C110.799 19.6963 111 20.1935 111 20.7961C111 21.399 110.799 21.9027 110.396 22.3021ZM107.41 22.2551C107.034 21.8687 106.846 21.3823 106.846 20.7961C106.846 20.2098 107.034 19.7301 107.41 19.357C107.8 18.9706 108.294 18.7774 108.891 18.7774C109.488 18.7774 109.975 18.9706 110.352 19.357C110.741 19.7301 110.936 20.2098 110.936 20.7961C110.936 21.3823 110.741 21.8687 110.352 22.2551C109.975 22.6282 109.488 22.8147 108.891 22.8147C108.294 22.8147 107.8 22.6282 107.41 22.2551ZM84.8521 11.228C84.24 11.228 83.7301 11.0294 83.3273 10.63C82.9243 10.2302 82.7235 9.71976 82.7235 9.104C82.7235 8.48843 82.9242 7.98424 83.3277 7.59757C83.7304 7.19839 84.2402 7 84.8521 7C85.4765 7 85.9929 7.19814 86.3959 7.59758C86.7994 7.98425 87.0001 8.48843 87.0001 9.104C87.0001 9.71976 86.7993 10.2302 86.3963 10.63C85.9933 11.0297 85.4767 11.228 84.8521 11.228ZM86.352 7.64499C86.7416 8.01807 86.9364 8.5044 86.9364 9.104C86.9364 9.70359 86.7416 10.1966 86.352 10.583C85.9624 10.9694 85.4624 11.1626 84.8521 11.1626C84.2547 11.1626 83.7612 10.9694 83.3716 10.583C82.982 10.1966 82.7873 9.70359 82.7873 9.104C82.7873 8.5044 82.982 8.01807 83.3716 7.64499C83.7612 7.25858 84.2547 7.06538 84.8521 7.06538C85.4624 7.06538 85.9624 7.25858 86.352 7.64499ZM86.6831 12.2818V22.5949H83.0405V12.2818H86.6831ZM18.7517 19.7168C18.1673 19.7168 17.6803 19.5036 17.2908 19.0772C16.9142 18.6375 16.7259 18.0912 16.7259 17.4383C16.7259 16.7855 16.9142 16.2458 17.2908 15.8194C17.6803 15.3797 18.1673 15.1599 18.7517 15.1599C19.3361 15.1599 19.8166 15.3797 20.1932 15.8194C20.5828 16.2458 20.7776 16.7855 20.7776 17.4383C20.7776 18.0912 20.5828 18.6375 20.1932 19.0772C19.8166 19.5036 19.3361 19.7168 18.7517 19.7168Z" fill="white"/>
</svg>
