<svg width="739" height="237" viewBox="0 0 739 237" fill="none" xmlns="http://www.w3.org/2000/svg">
<path d="M78.588 96V17.294H7.788V96H24.544V32.044H61.714V96H78.588ZM126.313 97.416C140.945 97.416 151.565 86.442 151.565 67.444C151.565 48.446 140.945 37.59 126.313 37.59C119.351 37.59 113.097 40.658 108.731 46.204V39.006H93.7445V117.712H108.731V88.684C113.333 94.584 119.587 97.416 126.313 97.416ZM121.593 84.082C116.755 84.082 111.209 81.132 108.731 77.592V57.414C111.209 53.756 116.755 50.924 121.593 50.924C130.207 50.924 135.989 57.65 135.989 67.444C135.989 77.356 130.207 84.082 121.593 84.082ZM188.971 97.416C207.851 97.416 219.179 83.728 219.179 67.444C219.179 51.278 207.851 37.59 188.971 37.59C170.209 37.59 158.881 51.278 158.881 67.444C158.881 83.728 170.209 97.416 188.971 97.416ZM188.971 84.082C179.649 84.082 174.457 76.412 174.457 67.444C174.457 58.594 179.649 50.924 188.971 50.924C198.293 50.924 203.603 58.594 203.603 67.444C203.603 76.412 198.293 84.082 188.971 84.082ZM256.847 97.416C268.529 97.416 275.609 92.342 279.385 87.032L269.591 77.946C266.877 81.722 262.747 84.082 257.555 84.082C248.469 84.082 242.097 77.356 242.097 67.444C242.097 57.532 248.469 50.924 257.555 50.924C262.747 50.924 266.877 53.048 269.591 57.06L279.385 47.856C275.609 42.664 268.529 37.59 256.847 37.59C239.265 37.59 226.639 49.98 226.639 67.444C226.639 85.026 239.265 97.416 256.847 97.416ZM314.788 96V52.104H330.718V39.006H283.754V52.104H299.684V96H314.788ZM366.548 97.416C385.428 97.416 396.756 83.728 396.756 67.444C396.756 51.278 385.428 37.59 366.548 37.59C347.786 37.59 336.458 51.278 336.458 67.444C336.458 83.728 347.786 97.416 366.548 97.416ZM366.548 84.082C357.226 84.082 352.034 76.412 352.034 67.444C352.034 58.594 357.226 50.924 366.548 50.924C375.87 50.924 381.18 58.594 381.18 67.444C381.18 76.412 375.87 84.082 366.548 84.082ZM491.637 96V39.006H438.065V96H453.051V52.104H476.651V96H491.637ZM520.91 96L545.1 60.246V96H560.086V39.006H544.982L521.5 73.462V39.006H506.514V96H520.91ZM642.105 39.006V82.902H623.579V39.006H608.593V82.902H589.949V39.006H574.963V96H657.209V39.006H642.105ZM686.502 96L710.692 60.246V96H725.678V39.006H710.574L687.092 73.462V39.006H672.106V96H686.502ZM33.984 216.416C45.666 216.416 52.746 211.342 56.522 206.032L46.728 196.946C44.014 200.722 39.884 203.082 34.692 203.082C25.606 203.082 19.234 196.356 19.234 186.444C19.234 176.532 25.606 169.924 34.692 169.924C39.884 169.924 44.014 172.048 46.728 176.06L56.522 166.856C52.746 161.664 45.666 156.59 33.984 156.59C16.402 156.59 3.776 168.98 3.776 186.444C3.776 204.026 16.402 216.416 33.984 216.416ZM111.159 229.514H126.145V201.902H119.891V158.006H104.905V201.902H81.3048V158.006H66.3188V215H111.159V229.514ZM162.361 216.416C171.211 216.416 180.179 213.702 185.843 208.51L179.235 198.834C175.577 202.374 168.851 204.498 164.013 204.498C154.337 204.498 148.555 198.48 147.611 191.282H189.973V187.978C189.973 169.334 178.409 156.59 161.417 156.59C144.071 156.59 131.917 169.924 131.917 186.444C131.917 204.734 145.015 216.416 162.361 216.416ZM175.459 181.134H147.375C148.083 175.47 152.095 168.508 161.417 168.508C171.329 168.508 175.105 175.706 175.459 181.134ZM215.783 215V192.226H239.383V215H254.369V158.006H239.383V179.128H215.783V158.006H200.797V215H215.783ZM318.453 215V178.184C318.453 161.782 306.535 156.59 293.555 156.59C284.587 156.59 275.619 159.422 268.657 165.558L274.321 175.588C279.158 171.104 284.823 168.862 290.959 168.862C298.511 168.862 303.467 172.638 303.467 178.42V186.09C299.691 181.606 292.964 179.128 285.413 179.128C276.327 179.128 265.589 184.202 265.589 197.536C265.589 210.28 276.327 216.416 285.413 216.416C292.847 216.416 299.573 213.702 303.467 209.1V215H318.453ZM291.431 206.268C285.531 206.268 280.693 203.2 280.693 197.89C280.693 192.344 285.531 189.276 291.431 189.276C296.269 189.276 300.989 190.928 303.467 194.232V201.312C300.989 204.616 296.269 206.268 291.431 206.268ZM365.885 216.416C380.517 216.416 391.137 205.442 391.137 186.444C391.137 167.446 380.517 156.59 365.885 156.59C358.923 156.59 352.669 159.658 348.303 165.204V158.006H333.317V236.712H348.303V207.684C352.905 213.584 359.159 216.416 365.885 216.416ZM361.165 203.082C356.327 203.082 350.781 200.132 348.303 196.592V176.414C350.781 172.756 356.327 169.924 361.165 169.924C369.779 169.924 375.561 176.65 375.561 186.444C375.561 196.356 369.779 203.082 361.165 203.082ZM416.508 215L440.698 179.246V215H455.684V158.006H440.58L417.098 192.462V158.006H402.112V215H416.508ZM484.957 215L509.147 179.246V215H524.133V158.006H509.029L485.547 192.462V158.006H470.561V215H484.957Z" fill="black"/>
<path d="M0 131H391.895" stroke="black" stroke-width="13"/>
</svg>
