<svg width="106" height="69" viewBox="0 0 106 69" fill="none" xmlns="http://www.w3.org/2000/svg">
<path fill-rule="evenodd" clip-rule="evenodd" d="M6.46434 32.8329V24.5507C6.46434 10.9443 16.3643 0 28.6723 0H83.9257C96.1 0 106 10.9443 106 24.4028V32.685C106 46.1435 96.1 57.0878 83.9257 57.0878H28.6723C27.9726 57.0878 27.2802 57.0506 26.5962 56.9779C24.7544 60.3034 21.2185 62.5536 17.159 62.5536C11.1999 62.5536 6.36902 57.7047 6.36902 51.7232C6.36902 48.824 7.50389 46.1909 9.35204 44.247C7.66814 41.0561 6.46445 37.2537 6.46434 32.8329Z" fill="black"/>
<path fill-rule="evenodd" clip-rule="evenodd" d="M26.5962 56.9779C27.2802 57.0506 27.9726 57.0878 28.6723 57.0878H83.9257C96.1 57.0878 106 46.1435 106 32.685V24.4028C106 10.9443 96.1 0 83.9257 0H28.6723C16.3643 0 6.46434 10.9443 6.46434 24.5507V32.8329C6.46445 37.2537 7.66814 41.0561 9.35204 44.247C7.50389 46.1909 6.36902 48.824 6.36902 51.7232C6.36902 57.7047 11.1999 62.5536 17.159 62.5536C21.2185 62.5536 24.7544 60.3034 26.5962 56.9779ZM12.0106 32.8328C12.0106 32.8328 12.0106 32.8328 12.0106 32.8329C12.0107 36.1982 12.9186 39.1122 14.2532 41.6411L16.1246 45.1873L13.3644 48.0905C12.4614 49.0403 11.9153 50.3118 11.9153 51.7232C11.9153 54.6301 14.263 56.9866 17.159 56.9866C19.1245 56.9866 20.8456 55.9035 21.7487 54.2729L23.5314 51.054L27.1802 51.4417C27.6713 51.4939 28.1689 51.5207 28.6723 51.5207H83.9257C92.5451 51.5207 100.454 43.5868 100.454 32.685V24.4028C100.454 13.501 92.5451 5.56707 83.9257 5.56707H28.6723C19.9191 5.56707 12.0106 13.501 12.0106 24.5507V32.8328Z" fill="white"/>
<path d="M9.32618 64.146C9.32618 66.7841 7.23844 68.9228 4.66309 68.9228C2.08774 68.9228 0 66.7841 0 64.146C0 61.5078 2.08774 59.3691 4.66309 59.3691C7.23844 59.3691 9.32618 61.5078 9.32618 64.146Z" fill="black"/>
<path fill-rule="evenodd" clip-rule="evenodd" d="M4.66309 63.3329C4.22473 63.3329 3.86937 63.6969 3.86937 64.146C3.86937 64.595 4.22473 64.959 4.66309 64.959C5.10145 64.959 5.45681 64.595 5.45681 64.146C5.45681 63.6969 5.10145 63.3329 4.66309 63.3329ZM4.66309 68.9228C7.23844 68.9228 9.32618 66.7841 9.32618 64.146C9.32618 61.5078 7.23844 59.3691 4.66309 59.3691C2.08774 59.3691 0 61.5078 0 64.146C0 66.7841 2.08774 68.9228 4.66309 68.9228Z" fill="white"/>
<path d="M41.1716 28.3193C41.1716 31.0202 39.0329 33.2098 36.3947 33.2098C33.7566 33.2098 31.6179 31.0202 31.6179 28.3193C31.6179 25.6183 33.7566 23.4287 36.3947 23.4287C39.0329 23.4287 41.1716 25.6183 41.1716 28.3193Z" fill="white"/>
<path d="M60.7341 28.3193C60.7341 31.0202 58.5954 33.2098 55.9572 33.2098C53.3191 33.2098 51.1804 31.0202 51.1804 28.3193C51.1804 25.6183 53.3191 23.4287 55.9572 23.4287C58.5954 23.4287 60.7341 25.6183 60.7341 28.3193Z" fill="white"/>
<path d="M80.5245 28.3193C80.5245 31.0202 78.3349 33.2098 75.634 33.2098C72.933 33.2098 70.7434 31.0202 70.7434 28.3193C70.7434 25.6183 72.933 23.4287 75.634 23.4287C78.3349 23.4287 80.5245 25.6183 80.5245 28.3193Z" fill="white"/>
</svg>
