<svg width="146" height="182" viewBox="0 0 146 182" fill="none" xmlns="http://www.w3.org/2000/svg">
<path d="M116.554 6.22817C119.627 -2.07606 131.373 -2.07606 134.446 6.22817L135.884 10.1159L139.772 11.5545C148.076 14.6273 148.076 26.3727 139.772 29.4455L135.884 30.8841L134.446 34.7718C131.373 43.0761 119.627 43.0761 116.554 34.7718L115.116 30.8841L111.228 29.4455C102.924 26.3727 102.924 14.6273 111.228 11.5545L115.116 10.1159L116.554 6.22817Z" fill="black"/>
<path d="M13.4351 139.847C16.0378 130.718 28.9622 130.718 31.5649 139.847L31.9339 141.142L33.2382 140.815C42.4374 138.506 48.8997 149.711 42.3031 156.533L41.3678 157.5L42.3031 158.467C48.8997 165.289 42.4374 176.494 33.2382 174.185L31.9339 173.858L31.5649 175.153C28.9622 184.282 16.0378 184.282 13.4351 175.153L13.0661 173.858L11.7618 174.185C2.56256 176.494 -3.89968 165.289 2.69694 158.467L3.63219 157.5L2.69694 156.533C-3.89968 149.711 2.56256 138.506 11.7618 140.815L13.0661 141.142L13.4351 139.847Z" fill="black"/>
</svg>
