<svg width="249" height="179" viewBox="0 0 249 179" fill="none" xmlns="http://www.w3.org/2000/svg">
<path d="M219.554 6.22817C222.627 -2.07606 234.373 -2.07606 237.446 6.22817L238.884 10.1159L242.772 11.5545C251.076 14.6273 251.076 26.3727 242.772 29.4455L238.884 30.8841L237.446 34.7718C234.373 43.0761 222.627 43.0761 219.554 34.7718L218.116 30.8841L214.228 29.4455C205.924 26.3727 205.924 14.6273 214.228 11.5545L218.116 10.1159L219.554 6.22817Z" fill="black"/>
<path d="M13.4351 136.847C16.0378 127.718 28.9622 127.718 31.5649 136.847L31.9339 138.142L33.2382 137.815C42.4374 135.506 48.8997 146.711 42.3031 153.533L41.3678 154.5L42.3031 155.467C48.8997 162.289 42.4374 173.494 33.2382 171.185L31.9339 170.858L31.5649 172.153C28.9622 181.282 16.0378 181.282 13.4351 172.153L13.0661 170.858L11.7618 171.185C2.56256 173.494 -3.89968 162.289 2.69694 155.467L3.63219 154.5L2.69694 153.533C-3.89968 146.711 2.56256 135.506 11.7618 137.815L13.0661 138.142L13.4351 136.847Z" fill="black"/>
</svg>
