<svg width="937" height="257" viewBox="0 0 937 257" fill="none" xmlns="http://www.w3.org/2000/svg">
<path d="M78.588 96V17.294H7.788V96H24.544V32.044H61.714V96H78.588ZM108.141 96L132.331 60.246V96H147.317V39.006H132.213L108.731 73.462V39.006H93.7445V96H108.141ZM229.336 39.006V82.902H210.81V39.006H195.824V82.902H177.18V39.006H162.194V96H244.44V39.006H229.336ZM273.732 96L297.922 60.246V96H312.908V39.006H297.804L274.322 73.462V39.006H259.336V96H273.732ZM384.527 97.416C396.209 97.416 403.289 92.342 407.065 87.032L397.271 77.946C394.557 81.722 390.427 84.082 385.235 84.082C376.149 84.082 369.777 77.356 369.777 67.444C369.777 57.532 376.149 50.924 385.235 50.924C390.427 50.924 394.557 53.048 397.271 57.06L407.065 47.856C403.289 42.664 396.209 37.59 384.527 37.59C366.945 37.59 354.319 49.98 354.319 67.444C354.319 85.026 366.945 97.416 384.527 97.416ZM461.702 110.514H476.688V82.902H470.434V39.006H455.448V82.902H431.848V39.006H416.862V96H461.702V110.514ZM512.904 97.416C521.754 97.416 530.722 94.702 536.386 89.51L529.778 79.834C526.12 83.374 519.394 85.498 514.556 85.498C504.88 85.498 499.098 79.48 498.154 72.282H540.516V68.978C540.516 50.334 528.952 37.59 511.96 37.59C494.614 37.59 482.46 50.924 482.46 67.444C482.46 85.734 495.558 97.416 512.904 97.416ZM526.002 62.134H497.918C498.626 56.47 502.638 49.508 511.96 49.508C521.872 49.508 525.648 56.706 526.002 62.134ZM566.326 96V73.226H589.926V96H604.912V39.006H589.926V60.128H566.326V39.006H551.34V96H566.326ZM668.995 96V59.184C668.995 42.782 657.077 37.59 644.097 37.59C635.129 37.59 626.161 40.422 619.199 46.558L624.863 56.588C629.701 52.104 635.365 49.862 641.501 49.862C649.053 49.862 654.009 53.638 654.009 59.42V67.09C650.233 62.606 643.507 60.128 635.955 60.128C626.869 60.128 616.131 65.202 616.131 78.536C616.131 91.28 626.869 97.416 635.955 97.416C643.389 97.416 650.115 94.702 654.009 90.1V96H668.995ZM641.973 87.268C636.073 87.268 631.235 84.2 631.235 78.89C631.235 73.344 636.073 70.276 641.973 70.276C646.811 70.276 651.531 71.928 654.009 75.232V82.312C651.531 85.616 646.811 87.268 641.973 87.268ZM716.428 97.416C731.06 97.416 741.68 86.442 741.68 67.444C741.68 48.446 731.06 37.59 716.428 37.59C709.466 37.59 703.212 40.658 698.846 46.204V39.006H683.86V117.712H698.846V88.684C703.448 94.584 709.702 97.416 716.428 97.416ZM711.708 84.082C706.87 84.082 701.324 81.132 698.846 77.592V57.414C701.324 53.756 706.87 50.924 711.708 50.924C720.322 50.924 726.104 57.65 726.104 67.444C726.104 77.356 720.322 84.082 711.708 84.082ZM767.051 96L791.241 60.246V96H806.227V39.006H791.123L767.641 73.462V39.006H752.655V96H767.051ZM835.5 96L859.69 60.246V96H874.676V39.006H859.572L836.09 73.462V39.006H821.104V96H835.5ZM61.006 215V158.006H7.434V215H22.42V171.104H46.02V215H61.006ZM108.451 216.416C123.083 216.416 133.703 205.442 133.703 186.444C133.703 167.446 123.083 156.59 108.451 156.59C101.489 156.59 95.2352 159.658 90.8692 165.204V158.006H75.8832V236.712H90.8692V207.684C95.4712 213.584 101.725 216.416 108.451 216.416ZM103.731 203.082C98.8932 203.082 93.3472 200.132 90.8692 196.592V176.414C93.3472 172.756 98.8932 169.924 103.731 169.924C112.345 169.924 118.127 176.65 118.127 186.444C118.127 196.356 112.345 203.082 103.731 203.082ZM171.11 216.416C189.99 216.416 201.318 202.728 201.318 186.444C201.318 170.278 189.99 156.59 171.11 156.59C152.348 156.59 141.02 170.278 141.02 186.444C141.02 202.728 152.348 216.416 171.11 216.416ZM171.11 203.082C161.788 203.082 156.596 195.412 156.596 186.444C156.596 177.594 161.788 169.924 171.11 169.924C180.432 169.924 185.742 177.594 185.742 186.444C185.742 195.412 180.432 203.082 171.11 203.082ZM238.986 216.416C250.668 216.416 257.748 211.342 261.524 206.032L251.73 196.946C249.016 200.722 244.886 203.082 239.694 203.082C230.608 203.082 224.236 196.356 224.236 186.444C224.236 176.532 230.608 169.924 239.694 169.924C244.886 169.924 249.016 172.048 251.73 176.06L261.524 166.856C257.748 161.664 250.668 156.59 238.986 156.59C221.404 156.59 208.778 168.98 208.778 186.444C208.778 204.026 221.404 216.416 238.986 216.416ZM296.927 215V171.104H312.857V158.006H265.893V171.104H281.823V215H296.927ZM348.686 216.416C367.566 216.416 378.894 202.728 378.894 186.444C378.894 170.278 367.566 156.59 348.686 156.59C329.924 156.59 318.596 170.278 318.596 186.444C318.596 202.728 329.924 216.416 348.686 216.416ZM348.686 203.082C339.364 203.082 334.172 195.412 334.172 186.444C334.172 177.594 339.364 169.924 348.686 169.924C358.008 169.924 363.318 177.594 363.318 186.444C363.318 195.412 358.008 203.082 348.686 203.082Z" fill="black"/>
<path d="M0 250H381.5" stroke="black" stroke-width="13"/>
</svg>
